# xmcd CD database file
#
# Track frame offsets:
#	150
#	14143
#	26482
#	39123
#	51529
#	64370
#	75898
#	89129
#	104344
#	118627
#	129807
#	143565
#	154870
#	167646
#	176326
#	188207
#	197688
#	214426
#	225175
#	238122
#
# Disc length: 3312 seconds
#
# Revision: 4
# Processed by: cddbd v1.5.2PL0 Copyright (c) Steve Scherf et al.
# Submitted via: CDex 1.51
#
DISCID=0c0cee14
DTITLE=Simon and Garfunkel - The Essential Simon and Garfunkel [CD1)
DYEAR=2003
DGENRE=Blues
TTITLE0=The Sound of Silence
TTITLE1=Wednesday Morning, 3 A.M
TTITLE2=Bye Bye Love
TTITLE3=Bleecker Street
TTITLE4=I am a Rock
TTITLE5=A Most Peculiar Man
TTITLE6=Richard Cory
TTITLE7=Kathy's Song
TTITLE8=Scarborough Fair
TTITLE9=Homeward Bound
TTITLE10=Sparrow
TTITLE11=Leaves that are Green
TTITLE12=He was My Brother
TTITLE13=The 59th Street Bridge Song
TTITLE14=the Dangling Conversation
TTITLE15=A Poem on the Underground Wall
TTITLE16=Blessed
TTITLE17=Cloudy
TTITLE18=Blues Run the Game
TTITLE19=A Hazy Shade of Winter
EXTD=YEAR: 2003
EXTT0=
EXTT1=
EXTT2=
EXTT3=
EXTT4=
EXTT5=
EXTT6=
EXTT7=
EXTT8=
EXTT9=
EXTT10=
EXTT11=
EXTT12=
EXTT13=
EXTT14=
EXTT15=
EXTT16=
EXTT17=
EXTT18=
EXTT19=
PLAYORDER=
